<svg width="216" height="68" viewBox="0 0 216 68" fill="none" xmlns="http://www.w3.org/2000/svg">
<rect x="54.1456" y="11.5143" width="161.13" height="41.1634" rx="6" fill="#41B4E6"/>
<path d="M92.4693 38.596H90.773V27.1878H84.4625V38.596H82.775V25.7991H92.4693V38.596ZM94.8599 33.7532C94.8599 32.8216 95.0416 31.9837 95.4048 31.2395C95.774 30.4954 96.2838 29.9212 96.9341 29.5169C97.5904 29.1126 98.3375 28.9104 99.1754 28.9104C100.47 28.9104 101.516 29.3587 102.313 30.2552C103.116 31.1516 103.517 32.344 103.517 33.8323V33.9466C103.517 34.8723 103.338 35.7044 102.981 36.4427C102.629 37.1751 102.123 37.7464 101.461 38.1565C100.804 38.5667 100.048 38.7718 99.1929 38.7718C97.9039 38.7718 96.858 38.3235 96.0552 37.427C95.2584 36.5305 94.8599 35.344 94.8599 33.8675V33.7532ZM96.4947 33.9466C96.4947 35.0013 96.7379 35.8479 97.2242 36.4866C97.7164 37.1253 98.3726 37.4446 99.1929 37.4446C100.019 37.4446 100.675 37.1223 101.162 36.4778C101.648 35.8274 101.891 34.9192 101.891 33.7532C101.891 32.7102 101.642 31.8665 101.144 31.222C100.652 30.5716 99.9957 30.2464 99.1754 30.2464C98.3726 30.2464 97.7252 30.5657 97.233 31.2044C96.7408 31.843 96.4947 32.7571 96.4947 33.9466ZM113.335 38.596H111.709V30.4309H107.332V38.596H105.697V29.0862H113.335V38.596ZM123.978 33.9466C123.978 35.3938 123.647 36.5598 122.985 37.4446C122.323 38.3294 121.426 38.7718 120.295 38.7718C119.141 38.7718 118.233 38.4055 117.571 37.6731V42.2522H115.945V29.0862H117.43L117.509 30.1409C118.171 29.3206 119.091 28.9104 120.269 28.9104C121.412 28.9104 122.314 29.3411 122.976 30.2024C123.644 31.0638 123.978 32.262 123.978 33.7971V33.9466ZM122.352 33.762C122.352 32.6897 122.124 31.843 121.667 31.222C121.21 30.6009 120.583 30.2903 119.786 30.2903C118.801 30.2903 118.063 30.7268 117.571 31.5999V36.1438C118.057 37.011 118.801 37.4446 119.803 37.4446C120.583 37.4446 121.201 37.137 121.658 36.5218C122.121 35.9007 122.352 34.9807 122.352 33.762ZM125.622 33.7532C125.622 32.8216 125.803 31.9837 126.167 31.2395C126.536 30.4954 127.045 29.9212 127.696 29.5169C128.352 29.1126 129.099 28.9104 129.937 28.9104C131.232 28.9104 132.278 29.3587 133.075 30.2552C133.878 31.1516 134.279 32.344 134.279 33.8323V33.9466C134.279 34.8723 134.1 35.7044 133.743 36.4427C133.391 37.1751 132.884 37.7464 132.222 38.1565C131.566 38.5667 130.81 38.7718 129.955 38.7718C128.666 38.7718 127.62 38.3235 126.817 37.427C126.02 36.5305 125.622 35.344 125.622 33.8675V33.7532ZM127.256 33.9466C127.256 35.0013 127.5 35.8479 127.986 36.4866C128.478 37.1253 129.134 37.4446 129.955 37.4446C130.781 37.4446 131.437 37.1223 131.923 36.4778C132.41 35.8274 132.653 34.9192 132.653 33.7532C132.653 32.7102 132.404 31.8665 131.906 31.222C131.414 30.5716 130.757 30.2464 129.937 30.2464C129.134 30.2464 128.487 30.5657 127.995 31.2044C127.503 31.843 127.256 32.7571 127.256 33.9466ZM140.493 29.6311C141.688 29.6311 142.643 30.0325 143.358 30.8352C144.079 31.6321 144.439 32.6839 144.439 33.9905V34.1399C144.439 35.0364 144.266 35.8391 143.92 36.5481C143.575 37.2513 143.077 37.7991 142.426 38.1917C141.782 38.5784 141.038 38.7718 140.194 38.7718C138.917 38.7718 137.888 38.347 137.109 37.4973C136.33 36.6419 135.94 35.4964 135.94 34.0608V33.2698C135.94 31.2718 136.309 29.6839 137.047 28.5061C137.792 27.3284 138.887 26.6106 140.335 26.3528C141.155 26.2063 141.709 26.0276 141.996 25.8167C142.283 25.6057 142.426 25.3157 142.426 24.9466H143.762C143.762 25.679 143.595 26.2503 143.261 26.6604C142.933 27.0706 142.406 27.3606 141.679 27.5305L140.466 27.803C139.5 28.0315 138.773 28.4182 138.287 28.9632C137.806 29.5022 137.493 30.2229 137.346 31.1253C138.208 30.1292 139.256 29.6311 140.493 29.6311ZM140.176 30.9671C139.379 30.9671 138.747 31.2366 138.278 31.7757C137.809 32.3089 137.575 33.0501 137.575 33.9993V34.1399C137.575 35.1595 137.809 35.968 138.278 36.5657C138.753 37.1575 139.391 37.4534 140.194 37.4534C141.003 37.4534 141.641 37.1546 142.11 36.5569C142.579 35.9593 142.813 35.0862 142.813 33.9378C142.813 33.0413 142.576 32.3235 142.101 31.7845C141.632 31.2395 140.991 30.9671 140.176 30.9671ZM145.836 33.7532C145.836 32.8216 146.018 31.9837 146.381 31.2395C146.751 30.4954 147.26 29.9212 147.911 29.5169C148.567 29.1126 149.314 28.9104 150.152 28.9104C151.447 28.9104 152.493 29.3587 153.29 30.2552C154.092 31.1516 154.494 32.344 154.494 33.8323V33.9466C154.494 34.8723 154.315 35.7044 153.958 36.4427C153.606 37.1751 153.099 37.7464 152.437 38.1565C151.781 38.5667 151.025 38.7718 150.169 38.7718C148.88 38.7718 147.835 38.3235 147.032 37.427C146.235 36.5305 145.836 35.344 145.836 33.8675V33.7532ZM147.471 33.9466C147.471 35.0013 147.714 35.8479 148.201 36.4866C148.693 37.1253 149.349 37.4446 150.169 37.4446C150.996 37.4446 151.652 37.1223 152.138 36.4778C152.625 35.8274 152.868 34.9192 152.868 33.7532C152.868 32.7102 152.619 31.8665 152.121 31.222C151.628 30.5716 150.972 30.2464 150.152 30.2464C149.349 30.2464 148.702 30.5657 148.21 31.2044C147.717 31.843 147.471 32.7571 147.471 33.9466ZM156.682 38.596V29.0862H160.391C161.657 29.0862 162.627 29.3089 163.3 29.7542C163.98 30.1936 164.32 30.8411 164.32 31.6966C164.32 32.136 164.188 32.5345 163.924 32.8919C163.661 33.2434 163.271 33.513 162.755 33.7005C163.33 33.8352 163.79 34.0989 164.135 34.4915C164.487 34.8841 164.663 35.3528 164.663 35.8977C164.663 36.7708 164.34 37.4388 163.696 37.9016C163.057 38.3645 162.152 38.596 160.98 38.596H156.682ZM158.308 34.4212V37.2864H160.998C161.677 37.2864 162.184 37.1604 162.518 36.9085C162.858 36.6565 163.028 36.302 163.028 35.845C163.028 34.8958 162.331 34.4212 160.936 34.4212H158.308ZM158.308 33.1204H160.409C161.932 33.1204 162.694 32.6751 162.694 31.7845C162.694 30.8938 161.973 30.4339 160.532 30.4046H158.308V33.1204ZM172.687 38.596C172.593 38.4085 172.517 38.0745 172.459 37.594C171.703 38.3792 170.8 38.7718 169.752 38.7718C168.814 38.7718 168.044 38.5081 167.44 37.9807C166.842 37.4475 166.544 36.7737 166.544 35.9593C166.544 34.969 166.919 34.2014 167.669 33.6565C168.424 33.1057 169.485 32.8304 170.85 32.8304H172.432V32.0833C172.432 31.5149 172.262 31.0638 171.922 30.7298C171.583 30.3899 171.082 30.22 170.419 30.22C169.839 30.22 169.353 30.3665 168.961 30.6595C168.568 30.9524 168.372 31.3069 168.372 31.7229H166.737C166.737 31.2483 166.904 30.7913 167.238 30.3518C167.578 29.9065 168.035 29.555 168.609 29.2971C169.189 29.0393 169.825 28.9104 170.516 28.9104C171.612 28.9104 172.47 29.1858 173.091 29.7366C173.712 30.2815 174.035 31.0345 174.058 31.9954V36.3723C174.058 37.2454 174.169 37.9397 174.392 38.4554V38.596H172.687ZM169.989 37.3567C170.499 37.3567 170.982 37.2249 171.439 36.9612C171.896 36.6975 172.227 36.3548 172.432 35.9329V33.9817H171.158C169.166 33.9817 168.169 34.5647 168.169 35.7307C168.169 36.2405 168.339 36.6389 168.679 36.9261C169.019 37.2132 169.456 37.3567 169.989 37.3567ZM183.533 30.4046H180.342V38.596H178.716V30.4046H175.587V29.0862H183.533V30.4046ZM186.89 32.3645H189.36C190.438 32.3763 191.291 32.6575 191.918 33.2083C192.544 33.7591 192.858 34.5061 192.858 35.4495C192.858 36.3987 192.536 37.1604 191.891 37.7346C191.247 38.3089 190.379 38.596 189.29 38.596H185.264V29.0862H186.89V32.3645ZM186.89 33.6917V37.2688H189.307C189.917 37.2688 190.388 37.1136 190.722 36.803C191.056 36.4866 191.223 36.0559 191.223 35.511C191.223 34.9837 191.059 34.553 190.731 34.219C190.409 33.8792 189.955 33.7034 189.369 33.6917H186.89Z" fill="white"/>
<path d="M34.0755 63.9316C50.5904 63.9316 63.9782 50.5437 63.9782 34.0289C63.9782 17.5141 50.5903 4.12622 34.0755 4.12622C17.5607 4.12622 4.17285 17.5141 4.17285 34.0289C4.17285 50.5437 17.5607 63.9316 34.0755 63.9316Z" fill="#41B4E6" stroke="#ECEFF1" stroke-width="7"/>
<path d="M60.4788 34.0289C60.4788 33.3855 60.4546 32.7481 60.4094 32.1161L49.4667 21.1736L18.685 33.2818L30.4622 45.0592L30.6167 45.6153L30.8167 45.4137L30.8175 45.4145L30.6167 45.6153L43.6447 58.6432C53.4963 54.8107 60.4788 45.2357 60.4788 34.0289Z" fill="#0091C8"/>
<path d="M31.5116 37.8756L43.4436 46.8843L49.4667 21.1736L18.6848 33.2818L28.0514 36.3842L45.1456 24.9179L31.5116 37.8756Z" fill="white"/>
<path d="M28.0514 36.3842L30.6167 45.6154L31.5117 37.8756L45.1456 24.9179L28.0514 36.3842Z" fill="#D2D2D7"/>
<path d="M35.3896 40.8034L30.6167 45.6154L31.5117 37.8756L35.3896 40.8034Z" fill="#B9B9BE"/>
</svg>
