<svg width="210" height="64" viewBox="0 0 210 64" fill="none" xmlns="http://www.w3.org/2000/svg">
<rect x="48.3761" y="9.51427" width="161.13" height="41.1634" rx="6" fill="#4CAF50"/>
<path d="M86.6998 36.596H85.0035V25.1878H78.693V36.596H77.0055V23.7991H86.6998V36.596ZM89.0905 31.7532C89.0905 30.8216 89.2721 29.9837 89.6354 29.2395C90.0045 28.4954 90.5143 27.9212 91.1647 27.5169C91.8209 27.1126 92.568 26.9104 93.4059 26.9104C94.7008 26.9104 95.7467 27.3587 96.5436 28.2551C97.3463 29.1516 97.7477 30.344 97.7477 31.8323V31.9466C97.7477 32.8723 97.569 33.7044 97.2115 34.4426C96.86 35.1751 96.3531 35.7464 95.691 36.1565C95.0348 36.5667 94.2789 36.7718 93.4235 36.7718C92.1344 36.7718 91.0885 36.3235 90.2858 35.427C89.4889 34.5305 89.0905 33.344 89.0905 31.8675V31.7532ZM90.7252 31.9466C90.7252 33.0012 90.9684 33.8479 91.4547 34.4866C91.9469 35.1253 92.6031 35.4446 93.4235 35.4446C94.2496 35.4446 94.9059 35.1223 95.3922 34.4778C95.8785 33.8274 96.1217 32.9192 96.1217 31.7532C96.1217 30.7102 95.8727 29.8665 95.3746 29.2219C94.8824 28.5716 94.2262 28.2464 93.4059 28.2464C92.6031 28.2464 91.9557 28.5657 91.4635 29.2044C90.9713 29.843 90.7252 30.7571 90.7252 31.9466ZM107.565 36.596H105.939V28.4309H101.562V36.596H99.9274V27.0862H107.565V36.596ZM118.209 31.9466C118.209 33.3938 117.878 34.5598 117.215 35.4446C116.553 36.3294 115.657 36.7718 114.526 36.7718C113.372 36.7718 112.464 36.4055 111.801 35.6731V40.2522H110.175V27.0862H111.661L111.74 28.1409C112.402 27.3206 113.322 26.9104 114.5 26.9104C115.642 26.9104 116.545 27.3411 117.207 28.2024C117.875 29.0637 118.209 30.262 118.209 31.7971V31.9466ZM116.583 31.762C116.583 30.6897 116.354 29.843 115.897 29.2219C115.44 28.6009 114.813 28.2903 114.016 28.2903C113.032 28.2903 112.294 28.7268 111.801 29.5999V34.1438C112.288 35.011 113.032 35.4446 114.034 35.4446C114.813 35.4446 115.431 35.137 115.888 34.5218C116.351 33.9007 116.583 32.9807 116.583 31.762ZM119.852 31.7532C119.852 30.8216 120.034 29.9837 120.397 29.2395C120.766 28.4954 121.276 27.9212 121.926 27.5169C122.583 27.1126 123.33 26.9104 124.168 26.9104C125.463 26.9104 126.508 27.3587 127.305 28.2551C128.108 29.1516 128.509 30.344 128.509 31.8323V31.9466C128.509 32.8723 128.331 33.7044 127.973 34.4426C127.622 35.1751 127.115 35.7464 126.453 36.1565C125.797 36.5667 125.041 36.7718 124.185 36.7718C122.896 36.7718 121.85 36.3235 121.047 35.427C120.251 34.5305 119.852 33.344 119.852 31.8675V31.7532ZM121.487 31.9466C121.487 33.0012 121.73 33.8479 122.216 34.4866C122.709 35.1253 123.365 35.4446 124.185 35.4446C125.011 35.4446 125.668 35.1223 126.154 34.4778C126.64 33.8274 126.883 32.9192 126.883 31.7532C126.883 30.7102 126.634 29.8665 126.136 29.2219C125.644 28.5716 124.988 28.2464 124.168 28.2464C123.365 28.2464 122.717 28.5657 122.225 29.2044C121.733 29.843 121.487 30.7571 121.487 31.9466ZM134.723 27.6311C135.919 27.6311 136.874 28.0325 137.589 28.8352C138.309 29.6321 138.67 30.6839 138.67 31.9905V32.1399C138.67 33.0364 138.497 33.8391 138.151 34.5481C137.805 35.2512 137.307 35.7991 136.657 36.1917C136.012 36.5784 135.268 36.7718 134.424 36.7718C133.147 36.7718 132.119 36.3469 131.339 35.4973C130.56 34.6419 130.171 33.4964 130.171 32.0608V31.2698C130.171 29.2718 130.54 27.6839 131.278 26.5061C132.022 25.3284 133.118 24.6106 134.565 24.3528C135.385 24.2063 135.939 24.0276 136.226 23.8167C136.513 23.6057 136.657 23.3157 136.657 22.9466H137.993C137.993 23.679 137.826 24.2503 137.492 24.6604C137.164 25.0706 136.636 25.3606 135.91 25.5305L134.697 25.803C133.73 26.0315 133.004 26.4182 132.517 26.9632C132.037 27.5022 131.723 28.2229 131.577 29.1253C132.438 28.1292 133.487 27.6311 134.723 27.6311ZM134.407 28.9671C133.61 28.9671 132.977 29.2366 132.508 29.7757C132.04 30.3089 131.805 31.0501 131.805 31.9993V32.1399C131.805 33.1594 132.04 33.968 132.508 34.5657C132.983 35.1575 133.622 35.4534 134.424 35.4534C135.233 35.4534 135.872 35.1546 136.34 34.5569C136.809 33.9593 137.044 33.0862 137.044 31.9378C137.044 31.0413 136.806 30.3235 136.332 29.7844C135.863 29.2395 135.221 28.9671 134.407 28.9671ZM140.067 31.7532C140.067 30.8216 140.249 29.9837 140.612 29.2395C140.981 28.4954 141.491 27.9212 142.141 27.5169C142.797 27.1126 143.545 26.9104 144.382 26.9104C145.677 26.9104 146.723 27.3587 147.52 28.2551C148.323 29.1516 148.724 30.344 148.724 31.8323V31.9466C148.724 32.8723 148.546 33.7044 148.188 34.4426C147.837 35.1751 147.33 35.7464 146.668 36.1565C146.011 36.5667 145.255 36.7718 144.4 36.7718C143.111 36.7718 142.065 36.3235 141.262 35.427C140.465 34.5305 140.067 33.344 140.067 31.8675V31.7532ZM141.702 31.9466C141.702 33.0012 141.945 33.8479 142.431 34.4866C142.923 35.1253 143.58 35.4446 144.4 35.4446C145.226 35.4446 145.882 35.1223 146.369 34.4778C146.855 33.8274 147.098 32.9192 147.098 31.7532C147.098 30.7102 146.849 29.8665 146.351 29.2219C145.859 28.5716 145.203 28.2464 144.382 28.2464C143.58 28.2464 142.932 28.5657 142.44 29.2044C141.948 29.843 141.702 30.7571 141.702 31.9466ZM150.913 36.596V27.0862H154.622C155.887 27.0862 156.857 27.3089 157.531 27.7542C158.211 28.1936 158.55 28.8411 158.55 29.6966C158.55 30.136 158.419 30.5344 158.155 30.8919C157.891 31.2434 157.502 31.513 156.986 31.7005C157.56 31.8352 158.02 32.0989 158.366 32.4915C158.717 32.8841 158.893 33.3528 158.893 33.8977C158.893 34.7708 158.571 35.4387 157.926 35.9016C157.288 36.3645 156.382 36.596 155.211 36.596H150.913ZM152.539 32.4212V35.2864H155.228C155.908 35.2864 156.415 35.1604 156.749 34.9085C157.089 34.6565 157.258 34.302 157.258 33.845C157.258 32.8958 156.561 32.4212 155.167 32.4212H152.539ZM152.539 31.1204H154.639C156.163 31.1204 156.924 30.6751 156.924 29.7844C156.924 28.8938 156.204 28.4339 154.762 28.4046H152.539V31.1204ZM166.918 36.596C166.824 36.4085 166.748 36.0745 166.689 35.594C165.933 36.3792 165.031 36.7718 163.982 36.7718C163.045 36.7718 162.274 36.5081 161.671 35.9807C161.073 35.4475 160.774 34.7737 160.774 33.9593C160.774 32.969 161.149 32.2014 161.899 31.6565C162.655 31.1057 163.715 30.8303 165.081 30.8303H166.663V30.0833C166.663 29.5149 166.493 29.0637 166.153 28.7298C165.813 28.3899 165.312 28.22 164.65 28.22C164.07 28.22 163.584 28.3665 163.191 28.6594C162.798 28.9524 162.602 29.3069 162.602 29.7229H160.967C160.967 29.2483 161.134 28.7913 161.468 28.3518C161.808 27.9065 162.265 27.555 162.839 27.2971C163.42 27.0393 164.055 26.9104 164.747 26.9104C165.842 26.9104 166.701 27.1858 167.322 27.7366C167.943 28.2815 168.265 29.0344 168.289 29.9954V34.3723C168.289 35.2454 168.4 35.9397 168.623 36.4553V36.596H166.918ZM164.219 35.3567C164.729 35.3567 165.213 35.2249 165.67 34.9612C166.127 34.6975 166.458 34.3548 166.663 33.9329V31.9817H165.388C163.396 31.9817 162.4 32.5647 162.4 33.7307C162.4 34.2405 162.57 34.6389 162.91 34.926C163.25 35.2132 163.686 35.3567 164.219 35.3567ZM177.763 28.4046H174.573V36.596H172.947V28.4046H169.818V27.0862H177.763V28.4046ZM181.121 30.3645H183.59C184.669 30.3762 185.521 30.6575 186.148 31.2083C186.775 31.7591 187.089 32.5061 187.089 33.4495C187.089 34.3987 186.766 35.1604 186.122 35.7346C185.477 36.3089 184.61 36.596 183.52 36.596H179.495V27.0862H181.121V30.3645ZM181.121 31.6917V35.2688H183.538C184.147 35.2688 184.619 35.1135 184.953 34.803C185.287 34.4866 185.454 34.0559 185.454 33.511C185.454 32.9837 185.29 32.553 184.962 32.219C184.639 31.8792 184.185 31.7034 183.599 31.6917H181.121Z" fill="white"/>
<g clip-path="url(#clip0_1_246)">
<path d="M54.1732 9.89155C48.1644 4.13627 40.258 0.885223 31.8377 0.885223C7.67044 0.885223 -7.50457 26.8284 4.56322 47.4653L0.0934753 63.5561L16.7891 59.2423C24.063 63.1357 30.0218 62.791 31.8535 63.0208C59.8764 63.0208 73.8259 29.4292 54.1337 9.99339L54.1732 9.89155Z" fill="#ECEFF1"/>
<path d="M31.8956 57.6833L31.8798 57.6807H31.8377C23.4516 57.6807 18.0937 53.7455 17.5666 53.5183L7.68363 56.0643L10.3323 46.5462L9.7024 45.5669C7.09329 41.4516 5.70703 36.7121 5.70703 31.8316C5.70703 8.87053 34.0251 -2.61129 50.4124 13.6179C66.7602 29.6773 55.2828 57.6833 31.8956 57.6833Z" fill="#4CAF50"/>
<path d="M46.2326 38.2449L46.2089 38.4407C45.4156 38.049 41.552 36.1768 40.8325 35.9182C39.217 35.3255 39.6729 35.8242 36.571 39.3442C36.1098 39.8534 35.6512 39.8926 34.8684 39.5401C34.0778 39.1484 31.5399 38.3258 28.5354 35.6623C26.1951 33.5864 24.6244 31.0404 24.1606 30.257C23.3884 28.9357 25.0039 28.7476 26.4745 25.9901C26.738 25.4418 26.6036 25.0109 26.4086 24.6218C26.2109 24.2301 24.6376 20.3915 23.9787 18.8613C23.3462 17.3363 22.6952 17.5296 22.2077 17.5296C20.6896 17.399 19.5801 17.4199 18.6024 18.4278C14.3487 23.0603 15.4214 27.8389 19.0609 32.9205C26.2136 42.1958 30.0245 43.9036 36.9926 46.2746C38.8744 46.8674 40.59 46.7838 41.9473 46.5906C43.4601 46.3529 46.6042 44.7078 47.2604 42.8669C47.9324 41.0259 47.9324 39.4983 47.7348 39.1458C47.5398 38.7933 47.0232 38.5974 46.2326 38.2449Z" fill="#FAFAFA"/>
</g>
<defs>
<clipPath id="clip0_1_246">
<rect width="63.2512" height="62.6709" fill="white" transform="translate(0.0934753 0.885223)"/>
</clipPath>
</defs>
</svg>
