<svg width="20" height="20" viewBox="0 0 20 20" fill="none" xmlns="http://www.w3.org/2000/svg">
<g clip-path="url(#clip0_7_1010)">
<path d="M18.2607 2.77832H2.60059C1.68094 2.77832 0.930664 3.52778 0.930664 4.44824V15.5811C0.930664 16.4984 1.6776 17.251 2.60059 17.251H18.2607C19.1781 17.251 19.9307 16.504 19.9307 15.5811V4.44824C19.9307 3.5309 19.1837 2.77832 18.2607 2.77832ZM18.0301 3.8916L10.4661 11.4557L2.83656 3.8916H18.0301ZM2.04395 15.3505V4.67346L7.40547 9.98901L2.04395 15.3505ZM2.83115 16.1377L8.19605 10.7728L10.0759 12.6365C10.2935 12.8523 10.6447 12.8515 10.8614 12.6348L12.6943 10.8019L18.0302 16.1377H2.83115ZM18.8174 15.3505L13.4815 10.0146L18.8174 4.67877V15.3505Z" fill="#3F92D1"/>
</g>
<defs>
<clipPath id="clip0_7_1010">
<rect width="19" height="19" fill="white" transform="translate(0.930664 0.514648)"/>
</clipPath>
</defs>
</svg>
