<svg width="20" height="20" viewBox="0 0 20 20" fill="none" xmlns="http://www.w3.org/2000/svg">
<g clip-path="url(#clip0_7_996)">
<path d="M13.8565 19.5146C13.2432 19.5146 12.6351 19.4062 12.0404 19.1902C9.42069 18.2385 6.98901 16.6885 5.00819 14.7077C3.02737 12.727 1.47738 10.2952 0.525749 7.6755C0.219943 6.8336 0.129697 5.96453 0.257607 5.09235C0.377429 4.27538 0.693884 3.48228 1.1728 2.79875C1.65383 2.11222 2.29513 1.5412 3.02734 1.14745C3.80816 0.727573 4.66042 0.514648 5.56051 0.514648C5.84045 0.514648 6.08239 0.710244 6.14106 0.983951L7.07298 5.33295C7.11518 5.52989 7.05465 5.7348 6.91227 5.87722L5.31986 7.46959C6.82206 10.4563 9.2596 12.8938 12.2463 14.396L13.8386 12.8036C13.981 12.6612 14.186 12.6008 14.3829 12.6429L18.7319 13.5748C19.0056 13.6335 19.2012 13.8754 19.2012 14.1553C19.2012 15.0554 18.9883 15.9077 18.5684 16.6886C18.1746 17.4208 17.6036 18.0621 16.9171 18.5431C16.2336 19.022 15.4405 19.3385 14.6235 19.4583C14.3675 19.4959 14.1115 19.5146 13.8565 19.5146ZM5.08612 1.72808C3.89885 1.85914 2.84506 2.48144 2.14528 3.4802C1.35837 4.60327 1.17488 5.98461 1.64184 7.2701C3.47141 12.3066 7.40933 16.2445 12.4458 18.0741C13.7313 18.5411 15.1127 18.3576 16.2357 17.5706C17.2345 16.8709 17.8568 15.8171 17.9879 14.6298L14.45 13.8717L12.7869 15.5347C12.61 15.7117 12.3411 15.7587 12.1146 15.6523C8.58235 13.9928 5.72311 11.1336 4.06365 7.60128C3.95726 7.37481 4.00424 7.10593 4.18121 6.929L5.84423 5.26598L5.08612 1.72808Z" fill="#3F92D1"/>
<path d="M18.607 10.608C18.2791 10.608 18.0133 10.3421 18.0133 10.0143C18.0133 5.43092 14.2845 1.7021 9.70115 1.7021C9.37326 1.7021 9.10742 1.43626 9.10742 1.10837C9.10742 0.780489 9.37326 0.514648 9.70115 0.514648C12.2386 0.514648 14.6242 1.50276 16.4184 3.297C18.2126 5.09123 19.2008 7.47679 19.2008 10.0143C19.2008 10.3421 18.935 10.608 18.607 10.608Z" fill="#3F92D1"/>
<path d="M16.2321 10.6081C15.9042 10.6081 15.6384 10.3422 15.6384 10.0144C15.6384 6.74055 12.975 4.0771 9.70115 4.0771C9.37326 4.0771 9.10742 3.81126 9.10742 3.48337C9.10742 3.15549 9.37326 2.88965 9.70115 2.88965C13.6297 2.88965 16.8259 6.08579 16.8259 10.0144C16.8259 10.3422 16.5601 10.6081 16.2321 10.6081Z" fill="#3F92D1"/>
<path d="M13.8572 10.6082C13.5293 10.6082 13.2635 10.3423 13.2635 10.0145C13.2635 8.05015 11.6655 6.4521 9.70115 6.4521C9.37326 6.4521 9.10742 6.18626 9.10742 5.85837C9.10742 5.53049 9.37326 5.26465 9.70115 5.26465C12.3202 5.26465 14.451 7.39538 14.451 10.0145C14.451 10.3423 14.1851 10.6082 13.8572 10.6082Z" fill="#3F92D1"/>
</g>
<defs>
<clipPath id="clip0_7_996">
<rect width="19" height="19" fill="white" transform="translate(0.200806 0.514648)"/>
</clipPath>
</defs>
</svg>
